<?xml version="1.0" standalone="no"?>
<!DOCTYPE svg PUBLIC "-//W3C//DTD SVG 20010904//EN"
 "http://www.w3.org/TR/2001/REC-SVG-20010904/DTD/svg10.dtd">
<svg version="1.0" xmlns="http://www.w3.org/2000/svg"
 width="512.000000pt" height="512.000000pt" viewBox="0 0 512.000000 512.000000"
 preserveAspectRatio="xMidYMid meet">
<metadata>
Created by potrace 1.11, written by Peter Selinger 2001-2013
</metadata>
<g transform="translate(0.000000,512.000000) scale(0.100000,-0.100000)"
fill="#000000" stroke="none">
<path d="M3215 4576 c-180 -59 -769 -367 -1068 -559 -43 -27 -81 -47 -84 -43
-12 12 17 132 77 319 33 103 60 194 60 202 0 23 -20 28 -40 10 -34 -31 -161
-287 -245 -496 -68 -171 -95 -210 -210 -302 -160 -129 -477 -456 -676 -697
-216 -263 -617 -895 -808 -1277 -127 -255 -171 -399 -170 -558 0 -106 14 -145
61 -170 33 -17 42 -18 94 -7 64 13 203 79 249 117 27 23 22 21 -50 -11 -154
-69 -167 -74 -208 -74 -52 0 -104 30 -113 66 -4 14 -4 65 -1 112 6 96 34 188
112 368 102 234 166 345 440 759 283 427 351 511 716 870 315 310 390 371 634
512 269 156 563 285 944 414 146 49 266 91 268 93 10 10 123 320 125 344 4 36
-18 38 -107 8z"/>
<path d="M3416 3974 c-235 -51 -609 -163 -854 -255 -614 -233 -1210 -626
-1551 -1024 -342 -398 -726 -1049 -792 -1341 -10 -44 -9 -56 9 -97 27 -61 52
-71 140 -57 81 13 150 34 217 68 65 32 213 133 267 183 40 35 41 38 19 39 -13
0 -66 -14 -118 -30 -158 -51 -240 -39 -259 36 -21 82 150 446 353 752 172 261
487 619 679 775 39 31 74 57 77 57 3 0 49 -134 103 -297 179 -553 272 -783
391 -962 98 -147 326 -368 563 -545 l113 -84 66 50 c100 76 384 206 541 248
49 13 84 40 106 82 38 73 174 507 174 555 0 89 -97 -100 -200 -389 -32 -91
-58 -149 -69 -153 -9 -4 -96 -35 -193 -71 -98 -35 -225 -84 -283 -109 -57 -25
-110 -45 -117 -45 -41 1 -297 170 -432 285 -146 125 -274 381 -375 749 -40
147 -95 396 -88 403 10 9 83 -177 168 -426 67 -195 100 -277 114 -287 22 -14
221 -38 237 -28 19 12 -17 23 -107 33 -48 6 -93 15 -100 21 -20 17 -64 127
-158 401 -47 135 -101 286 -120 335 -47 116 -64 180 -77 284 -16 137 -17 135
43 173 444 283 951 497 1521 642 99 24 182 47 184 50 13 12 -93 1 -192 -21z"/>
<path d="M2947 3254 c-56 -54 -98 -84 -145 -106 -37 -16 -82 -37 -101 -46 -62
-31 -291 -261 -291 -293 0 -16 29 -10 88 20 69 34 171 72 272 102 153 44 273
121 400 256 45 48 86 96 92 107 11 21 15 23 -76 -36 -83 -53 -100 -49 -48 13
29 36 22 33 -49 -18 -42 -30 -116 -63 -141 -63 -5 0 13 26 41 57 46 52 63 83
44 83 -5 0 -43 -35 -86 -76z m-27 -148 c0 -28 -25 -53 -35 -36 -9 14 14 72 26
64 5 -3 9 -16 9 -28z m-136 -12 c14 -37 6 -84 -21 -114 -22 -24 -50 -37 -125
-59 -63 -18 -98 -24 -98 -17 0 6 37 48 83 92 114 113 148 133 161 98z"/>
<path d="M3835 2552 c-55 -35 -108 -122 -73 -122 6 0 27 12 47 28 73 55 144
33 411 -128 183 -109 524 -333 534 -349 4 -6 -22 -29 -66 -57 -153 -97 -185
-121 -263 -199 -94 -93 -135 -165 -135 -235 0 -25 6 -55 14 -65 13 -18 15 -17
21 20 3 22 9 54 12 70 4 20 33 58 92 115 146 146 229 173 614 205 103 9 102
23 -5 110 -311 249 -942 597 -1124 620 -38 5 -56 2 -79 -13z"/>
<path d="M3816 2305 c-24 -24 -48 -74 -44 -93 2 -13 14 -15 63 -13 51 2 70 -3
120 -29 67 -35 215 -139 215 -151 0 -8 -29 -44 -111 -139 -110 -127 -159 -226
-159 -324 0 -115 47 -203 199 -377 50 -57 90 -110 89 -118 -2 -7 -95 -50 -208
-95 -113 -44 -252 -107 -309 -140 -210 -119 -417 -299 -554 -481 -109 -146
-81 -138 53 15 153 176 310 296 535 408 192 96 347 148 599 202 138 30 152 36
135 57 -8 9 -82 67 -165 130 -228 170 -299 256 -298 358 0 84 39 141 216 314
87 85 158 158 158 162 0 23 -314 245 -415 294 -73 35 -99 39 -119 20z"/>
</g>
</svg>
